<svg xmlns="http://www.w3.org/2000/svg" width="67" height="69" viewBox="0 0 67 69" fill="none">
    <path
        d="M63.5663 35.2521L40.2943 13.8419C39.5378 13.1458 38.5415 12.7691 37.5137 12.7905C36.4859 12.8119 35.5061 13.2298 34.7792 13.9567L13.3757 35.3603L12.2773 36.4586V68.0119H32.9023V48.3244H44.1523V68.0119H64.7773V36.3663L63.5663 35.2521ZM37.5943 16.5397C37.6273 16.5397 37.607 16.5469 37.5928 16.5608C37.5781 16.5469 37.5612 16.5397 37.5943 16.5397ZM61.0273 64.2619H47.9023V48.3244C47.9023 47.3298 47.5073 46.376 46.804 45.6727C46.1007 44.9695 45.1469 44.5744 44.1523 44.5744H32.9023C31.9078 44.5744 30.954 44.9695 30.2507 45.6727C29.5474 46.376 29.1523 47.3298 29.1523 48.3244V64.2619H16.0273V38.0119L37.5943 16.6083C37.5958 16.6069 37.5959 16.6056 37.5971 16.6042L61.0273 38.0119V64.2619Z"
        fill="white" />
    <rect x="14.5273" y="37.8869" width="16" height="27" fill="white" />
    <rect x="46.5273" y="37.8869" width="16" height="27" fill="white" />
    <path d="M38.5273 13.8869L62.7761 39.3869H14.2786L38.5273 13.8869Z" fill="white" />
    <rect x="27.5273" y="37.8869" width="24" height="9" fill="white" />
    <path
        d="M31.3792 7.61555C31.6503 5.55563 31.8498 4.55491 33.4087 4.3195C33.7929 4.26146 34.0871 3.94792 34.1206 3.5609C34.1542 3.17401 33.9182 2.81439 33.5498 2.69114C33.4461 2.65654 30.9798 1.84448 28.1784 2.04023C26.2262 2.17674 24.5837 2.76714 23.2986 3.79476C21.7757 5.01246 20.7934 6.82015 20.368 9.1664L26.1389 14.2234C30.6431 13.1674 31.0685 9.97596 31.3792 7.61555Z"
        fill="white" />
    <path
        d="M4.41349 33.4825C4.56864 33.6186 4.83939 33.7748 5.24735 33.7463C5.72576 33.7128 6.99661 33.624 14.2556 26.5166C17.6086 23.2336 21.4567 19.1931 24.503 15.7708L19.0267 10.9721C15.9083 14.7026 12.2918 19.3579 9.43499 23.336C7.63091 25.8478 6.25301 27.9126 5.33953 29.473C4.1296 31.5397 3.62384 32.7907 4.41349 33.4825Z"
        fill="white" />
</svg>