<svg
  xmlns="http://www.w3.org/2000/svg"
  width="53"
  height="45"
  viewBox="0 0 53 45"
  fill="none"
>
  <path
    d="M7.5 0C3.375 0 0 3.375 0 7.5C0 11.0625 2.4375 13.875 5.625 14.8125V43.125C5.625 44.25 6.375 45 7.5 45C8.625 45 9.375 44.25 9.375 43.125V14.8125C12.5625 14.0625 15 11.0625 15 7.5C15 3.375 11.625 0 7.5 0Z"
    fill="white"
  />
  <path
    d="M28.125 22.6875V1.875C28.125 0.75 27.375 0 26.25 0C25.125 0 24.375 0.75 24.375 1.875V22.6875C21.1875 23.4375 18.75 26.4375 18.75 30C18.75 33.5625 21.1875 36.375 24.375 37.3125V43.125C24.375 44.25 25.125 45 26.25 45C27.375 45 28.125 44.25 28.125 43.125V37.3125C31.3125 36.5625 33.75 33.5625 33.75 30C33.75 26.4375 31.3125 23.625 28.125 22.6875Z"
    fill="white"
  />
  <path
    d="M52.5 18.75C52.5 15.1875 50.0625 12.375 46.875 11.4375V1.875C46.875 0.75 46.125 0 45 0C43.875 0 43.125 0.75 43.125 1.875V11.4375C39.9375 12.1875 37.5 15.1875 37.5 18.75C37.5 22.3125 39.9375 25.125 43.125 26.0625V43.125C43.125 44.25 43.875 45 45 45C46.125 45 46.875 44.25 46.875 43.125V26.0625C50.0625 25.125 52.5 22.3125 52.5 18.75Z"
    fill="white"
  />
</svg>